<svg width="3139" height="1050" viewBox="0 0 3139 1050" fill="none" xmlns="http://www.w3.org/2000/svg">
<g opacity="0.6">
<path fill-rule="evenodd" clip-rule="evenodd" d="M548.168 233.422C621.431 233.422 691.693 262.525 743.497 314.33C795.302 366.134 824.405 436.396 824.405 509.659V774.233C824.405 830.401 764.063 865.913 714.985 838.658L703.843 832.673C673.15 816.958 649.087 811.801 615.171 829.174L609.094 832.488C591.601 842.481 571.919 848.016 551.782 848.605C531.645 849.194 511.673 844.819 493.626 835.865L487.242 832.488C448.047 810.083 420.761 816.774 381.351 838.627C332.242 865.944 271.931 830.432 271.931 774.264V509.659C271.931 436.396 301.034 366.134 352.839 314.33C404.643 262.525 474.905 233.422 548.168 233.422ZM440.742 448.273C428.532 448.273 416.822 453.124 408.187 461.758C399.553 470.392 394.703 482.102 394.703 494.313C394.703 506.523 399.553 518.233 408.187 526.868C416.822 535.502 428.532 540.352 440.742 540.352C452.953 540.352 464.663 535.502 473.297 526.868C481.931 518.233 486.782 506.523 486.782 494.313C486.782 482.102 481.931 470.392 473.297 461.758C464.663 453.124 452.953 448.273 440.742 448.273ZM655.594 448.273C643.383 448.273 631.673 453.124 623.039 461.758C614.405 470.392 609.554 482.102 609.554 494.313C609.554 506.523 614.405 518.233 623.039 526.868C631.673 535.502 643.383 540.352 655.594 540.352C667.804 540.352 679.514 535.502 688.148 526.868C696.783 518.233 701.633 506.523 701.633 494.313C701.633 482.102 696.783 470.392 688.148 461.758C679.514 453.124 667.804 448.273 655.594 448.273Z" fill="#8B98F2"/>
<path fill-rule="evenodd" clip-rule="evenodd" d="M548.168 233.422C621.431 233.422 691.693 262.525 743.497 314.33C795.302 366.134 824.405 436.396 824.405 509.659V774.233C824.405 830.401 764.063 865.913 714.985 838.658L703.843 832.673C673.15 816.958 649.087 811.801 615.171 829.174L609.094 832.488C591.601 842.481 571.919 848.016 551.782 848.605C531.645 849.194 511.673 844.819 493.626 835.865L487.242 832.488C448.047 810.083 420.761 816.774 381.351 838.627C332.242 865.944 271.931 830.432 271.931 774.264V509.659C271.931 436.396 301.034 366.134 352.839 314.33C404.643 262.525 474.905 233.422 548.168 233.422ZM440.742 448.273C428.532 448.273 416.822 453.124 408.187 461.758C399.553 470.392 394.703 482.102 394.703 494.313C394.703 506.523 399.553 518.233 408.187 526.868C416.822 535.502 428.532 540.352 440.742 540.352C452.953 540.352 464.663 535.502 473.297 526.868C481.931 518.233 486.782 506.523 486.782 494.313C486.782 482.102 481.931 470.392 473.297 461.758C464.663 453.124 452.953 448.273 440.742 448.273ZM655.594 448.273C643.383 448.273 631.673 453.124 623.039 461.758C614.405 470.392 609.554 482.102 609.554 494.313C609.554 506.523 614.405 518.233 623.039 526.868C631.673 535.502 643.383 540.352 655.594 540.352C667.804 540.352 679.514 535.502 688.148 526.868C696.783 518.233 701.633 506.523 701.633 494.313C701.633 482.102 696.783 470.392 688.148 461.758C679.514 453.124 667.804 448.273 655.594 448.273Z" fill="url(#paint0_linear_21339_4789)"/>
</g>
<path opacity="0.5" fill-rule="evenodd" clip-rule="evenodd" d="M532.997 213.914C606.26 213.914 676.522 243.018 728.326 294.822C780.131 346.627 809.234 416.889 809.234 490.151V754.725C809.234 810.894 748.892 846.405 699.814 819.15L688.672 813.165C657.979 797.45 633.916 792.294 600 809.666L593.923 812.981C576.43 822.974 556.748 828.509 536.611 829.097C516.474 829.686 496.502 825.311 478.456 816.357L472.071 812.981C432.876 790.575 405.59 797.266 366.18 819.119C317.072 846.436 256.76 810.924 256.76 754.756V490.151C256.76 416.889 285.863 346.627 337.668 294.822C389.472 243.018 459.734 213.914 532.997 213.914ZM425.571 428.765C413.361 428.765 401.651 433.616 393.017 442.25C384.382 450.884 379.532 462.594 379.532 474.805C379.532 487.015 384.382 498.726 393.017 507.36C401.651 515.994 413.361 520.844 425.571 520.844C437.782 520.844 449.492 515.994 458.126 507.36C466.76 498.726 471.611 487.015 471.611 474.805C471.611 462.594 466.76 450.884 458.126 442.25C449.492 433.616 437.782 428.765 425.571 428.765ZM640.423 428.765C628.212 428.765 616.502 433.616 607.868 442.25C599.234 450.884 594.383 462.594 594.383 474.805C594.383 487.015 599.234 498.726 607.868 507.36C616.502 515.994 628.212 520.844 640.423 520.844C652.633 520.844 664.343 515.994 672.978 507.36C681.612 498.726 686.462 487.015 686.462 474.805C686.462 462.594 681.612 450.884 672.978 442.25C664.343 433.616 652.633 428.765 640.423 428.765Z" fill="#8B98F2"/>
<path fill-rule="evenodd" clip-rule="evenodd" d="M516.747 192.973C590.01 192.973 660.272 222.076 712.076 273.881C763.881 325.685 792.984 395.947 792.984 469.21V733.784C792.984 789.952 732.642 825.464 683.564 798.209L672.422 792.223C641.729 776.509 617.666 771.352 583.75 788.724L577.673 792.039C560.18 802.032 540.498 807.567 520.361 808.156C500.224 808.745 480.252 804.369 462.206 795.415L455.821 792.039C416.626 769.633 389.34 776.324 349.93 798.178C300.822 825.495 240.51 789.983 240.51 733.815V469.21C240.51 395.947 269.613 325.685 321.418 273.881C373.222 222.076 443.484 192.973 516.747 192.973ZM409.321 407.824C397.111 407.824 385.401 412.674 376.767 421.309C368.132 429.943 363.282 441.653 363.282 453.863C363.282 466.074 368.132 477.784 376.767 486.418C385.401 495.052 397.111 499.903 409.321 499.903C421.532 499.903 433.242 495.052 441.876 486.418C450.51 477.784 455.361 466.074 455.361 453.863C455.361 441.653 450.51 429.943 441.876 421.309C433.242 412.674 421.532 407.824 409.321 407.824ZM624.173 407.824C611.962 407.824 600.252 412.674 591.618 421.309C582.984 429.943 578.133 441.653 578.133 453.863C578.133 466.074 582.984 477.784 591.618 486.418C600.252 495.052 611.962 499.903 624.173 499.903C636.383 499.903 648.093 495.052 656.728 486.418C665.362 477.784 670.212 466.074 670.212 453.863C670.212 441.653 665.362 429.943 656.728 421.309C648.093 412.674 636.383 407.824 624.173 407.824Z" fill="white"/>
<path d="M1159.97 267.625H1419.38C1478.03 267.625 1529.66 278.403 1574.28 299.958C1619.39 321.012 1654.23 351.34 1678.8 390.941C1703.86 430.542 1716.39 477.162 1716.39 530.799C1716.39 584.436 1703.86 631.056 1678.8 670.657C1654.23 710.258 1619.39 740.837 1574.28 762.392C1529.66 783.446 1478.03 793.973 1419.38 793.973H1159.97V267.625ZM1411.86 655.619C1449.96 655.619 1480.29 644.841 1502.84 623.286C1525.9 601.229 1537.43 570.4 1537.43 530.799C1537.43 491.198 1525.9 460.619 1502.84 439.064C1480.29 417.008 1449.96 405.98 1411.86 405.98H1337.42V655.619H1411.86ZM2079.7 806.003C2023.06 806.003 1972.17 794.223 1927.06 770.663C1881.94 747.103 1846.6 714.519 1821.04 672.913C1795.47 630.805 1782.69 583.434 1782.69 530.799C1782.69 478.164 1795.47 431.044 1821.04 389.437C1846.6 347.329 1881.94 314.495 1927.06 290.935C1972.17 267.375 2023.06 255.595 2079.7 255.595C2136.35 255.595 2187.23 267.375 2232.34 290.935C2277.46 314.495 2312.8 347.329 2338.36 389.437C2363.93 431.044 2376.71 478.164 2376.71 530.799C2376.71 583.434 2363.93 630.805 2338.36 672.913C2312.8 714.519 2277.46 747.103 2232.34 770.663C2187.23 794.223 2136.35 806.003 2079.7 806.003ZM2079.7 662.386C2101.76 662.386 2121.56 657.122 2139.1 646.595C2157.15 635.567 2171.44 620.278 2181.96 600.728C2192.49 580.677 2197.75 557.367 2197.75 530.799C2197.75 504.231 2192.49 481.172 2181.96 461.622C2171.44 441.571 2157.15 426.281 2139.1 415.755C2121.56 404.726 2101.76 399.212 2079.7 399.212C2057.64 399.212 2037.59 404.726 2019.55 415.755C2002 426.281 1987.97 441.571 1977.44 461.622C1966.91 481.172 1961.65 504.231 1961.65 530.799C1961.65 557.367 1966.91 580.677 1977.44 600.728C1987.97 620.278 2002 635.567 2019.55 646.595C2037.59 657.122 2057.64 662.386 2079.7 662.386ZM2689.25 661.634H2641.13V793.973H2463.68V267.625H2717.07C2765.7 267.625 2808.06 275.646 2844.15 291.687C2880.24 307.728 2908.06 330.787 2927.61 360.864C2947.16 390.941 2956.94 426.031 2956.94 466.134C2956.94 503.73 2948.42 536.564 2931.37 564.636C2914.33 592.707 2889.77 615.015 2857.68 631.557L2968.22 793.973H2778.73L2689.25 661.634ZM2777.98 466.134C2777.98 446.583 2771.96 431.545 2759.93 421.018C2747.9 409.99 2729.86 404.476 2705.79 404.476H2641.13V527.791H2705.79C2729.86 527.791 2747.9 522.528 2759.93 512.001C2771.96 500.973 2777.98 485.684 2777.98 466.134Z" fill="white"/>
<defs>
<linearGradient id="paint0_linear_21339_4789" x1="499.705" y1="406.585" x2="865.355" y2="621.099" gradientUnits="userSpaceOnUse">
<stop stop-color="#8B98F2"/>
<stop offset="1" stop-color="#FF5A5E"/>
</linearGradient>
</defs>
</svg>
