<svg width="6284" height="1050" viewBox="0 0 6284 1050" fill="none" xmlns="http://www.w3.org/2000/svg">
<g opacity="0.6">
<path fill-rule="evenodd" clip-rule="evenodd" d="M548.167 233.423C621.43 233.423 691.692 262.526 743.496 314.331C795.301 366.135 824.404 436.397 824.404 509.66V774.234C824.404 830.402 764.062 865.914 714.984 838.659L703.842 832.674C673.149 816.959 649.086 811.802 615.17 829.175L609.093 832.489C591.6 842.482 571.918 848.017 551.781 848.606C531.644 849.195 511.672 844.82 493.625 835.866L487.241 832.489C448.046 810.084 420.76 816.775 381.35 838.628C332.241 865.945 271.93 830.433 271.93 774.265V509.66C271.93 436.397 301.033 366.135 352.838 314.331C404.642 262.526 474.904 233.423 548.167 233.423ZM440.741 448.274C428.531 448.274 416.821 453.125 408.186 461.759C399.552 470.393 394.702 482.103 394.702 494.314C394.702 506.524 399.552 518.234 408.186 526.868C416.821 535.503 428.531 540.353 440.741 540.353C452.952 540.353 464.662 535.503 473.296 526.868C481.93 518.234 486.781 506.524 486.781 494.314C486.781 482.103 481.93 470.393 473.296 461.759C464.662 453.125 452.952 448.274 440.741 448.274ZM655.593 448.274C643.382 448.274 631.672 453.125 623.038 461.759C614.404 470.393 609.553 482.103 609.553 494.314C609.553 506.524 614.404 518.234 623.038 526.868C631.672 535.503 643.382 540.353 655.593 540.353C667.803 540.353 679.513 535.503 688.147 526.868C696.782 518.234 701.632 506.524 701.632 494.314C701.632 482.103 696.782 470.393 688.147 461.759C679.513 453.125 667.803 448.274 655.593 448.274Z" fill="#8B98F2"/>
<path fill-rule="evenodd" clip-rule="evenodd" d="M548.167 233.423C621.43 233.423 691.692 262.526 743.496 314.331C795.301 366.135 824.404 436.397 824.404 509.66V774.234C824.404 830.402 764.062 865.914 714.984 838.659L703.842 832.674C673.149 816.959 649.086 811.802 615.17 829.175L609.093 832.489C591.6 842.482 571.918 848.017 551.781 848.606C531.644 849.195 511.672 844.82 493.625 835.866L487.241 832.489C448.046 810.084 420.76 816.775 381.35 838.628C332.241 865.945 271.93 830.433 271.93 774.265V509.66C271.93 436.397 301.033 366.135 352.838 314.331C404.642 262.526 474.904 233.423 548.167 233.423ZM440.741 448.274C428.531 448.274 416.821 453.125 408.186 461.759C399.552 470.393 394.702 482.103 394.702 494.314C394.702 506.524 399.552 518.234 408.186 526.868C416.821 535.503 428.531 540.353 440.741 540.353C452.952 540.353 464.662 535.503 473.296 526.868C481.93 518.234 486.781 506.524 486.781 494.314C486.781 482.103 481.93 470.393 473.296 461.759C464.662 453.125 452.952 448.274 440.741 448.274ZM655.593 448.274C643.382 448.274 631.672 453.125 623.038 461.759C614.404 470.393 609.553 482.103 609.553 494.314C609.553 506.524 614.404 518.234 623.038 526.868C631.672 535.503 643.382 540.353 655.593 540.353C667.803 540.353 679.513 535.503 688.147 526.868C696.782 518.234 701.632 506.524 701.632 494.314C701.632 482.103 696.782 470.393 688.147 461.759C679.513 453.125 667.803 448.274 655.593 448.274Z" fill="url(#paint0_linear_21358_4789)"/>
</g>
<path opacity="0.5" fill-rule="evenodd" clip-rule="evenodd" d="M532.997 213.914C606.26 213.914 676.522 243.018 728.326 294.822C780.131 346.627 809.234 416.889 809.234 490.151V754.725C809.234 810.894 748.892 846.405 699.814 819.15L688.672 813.165C657.979 797.45 633.916 792.294 600 809.666L593.923 812.981C576.43 822.974 556.748 828.509 536.611 829.097C516.474 829.686 496.502 825.311 478.456 816.357L472.071 812.981C432.876 790.575 405.59 797.266 366.18 819.119C317.072 846.436 256.76 810.924 256.76 754.756V490.151C256.76 416.889 285.863 346.627 337.668 294.822C389.472 243.018 459.734 213.914 532.997 213.914ZM425.571 428.765C413.361 428.765 401.651 433.616 393.017 442.25C384.382 450.884 379.532 462.594 379.532 474.805C379.532 487.015 384.382 498.726 393.017 507.36C401.651 515.994 413.361 520.844 425.571 520.844C437.782 520.844 449.492 515.994 458.126 507.36C466.76 498.726 471.611 487.015 471.611 474.805C471.611 462.594 466.76 450.884 458.126 442.25C449.492 433.616 437.782 428.765 425.571 428.765ZM640.423 428.765C628.212 428.765 616.502 433.616 607.868 442.25C599.234 450.884 594.383 462.594 594.383 474.805C594.383 487.015 599.234 498.726 607.868 507.36C616.502 515.994 628.212 520.844 640.423 520.844C652.633 520.844 664.343 515.994 672.978 507.36C681.612 498.726 686.462 487.015 686.462 474.805C686.462 462.594 681.612 450.884 672.978 442.25C664.343 433.616 652.633 428.765 640.423 428.765Z" fill="#8B98F2"/>
<path fill-rule="evenodd" clip-rule="evenodd" d="M516.747 192.973C590.01 192.973 660.272 222.076 712.076 273.881C763.881 325.685 792.984 395.947 792.984 469.21V733.784C792.984 789.952 732.642 825.464 683.564 798.209L672.422 792.224C641.729 776.509 617.666 771.352 583.75 788.725L577.673 792.039C560.18 802.032 540.498 807.567 520.361 808.156C500.224 808.745 480.252 804.37 462.206 795.416L455.821 792.039C416.626 769.634 389.34 776.325 349.93 798.178C300.822 825.495 240.51 789.983 240.51 733.815V469.21C240.51 395.947 269.613 325.685 321.418 273.881C373.222 222.076 443.484 192.973 516.747 192.973ZM409.321 407.824C397.111 407.824 385.401 412.675 376.767 421.309C368.132 429.943 363.282 441.653 363.282 453.864C363.282 466.074 368.132 477.784 376.767 486.419C385.401 495.053 397.111 499.903 409.321 499.903C421.532 499.903 433.242 495.053 441.876 486.419C450.51 477.784 455.361 466.074 455.361 453.864C455.361 441.653 450.51 429.943 441.876 421.309C433.242 412.675 421.532 407.824 409.321 407.824ZM624.173 407.824C611.962 407.824 600.252 412.675 591.618 421.309C582.984 429.943 578.133 441.653 578.133 453.864C578.133 466.074 582.984 477.784 591.618 486.419C600.252 495.053 611.962 499.903 624.173 499.903C636.383 499.903 648.093 495.053 656.728 486.419C665.362 477.784 670.212 466.074 670.212 453.864C670.212 441.653 665.362 429.943 656.728 421.309C648.093 412.675 636.383 407.824 624.173 407.824Z" fill="white"/>
<path d="M1159.97 267.626H1419.38C1478.03 267.626 1529.66 278.404 1574.28 299.959C1619.39 321.013 1654.23 351.341 1678.8 390.942C1703.86 430.543 1716.39 477.163 1716.39 530.8C1716.39 584.437 1703.86 631.057 1678.8 670.658C1654.23 710.259 1619.39 740.838 1574.28 762.393C1529.66 783.447 1478.03 793.974 1419.38 793.974H1159.97V267.626ZM1411.86 655.619C1449.96 655.619 1480.29 644.842 1502.84 623.287C1525.9 601.23 1537.43 570.401 1537.43 530.8C1537.43 491.199 1525.9 460.62 1502.84 439.065C1480.29 417.009 1449.96 405.981 1411.86 405.981H1337.42V655.619H1411.86ZM2079.7 806.004C2023.06 806.004 1972.17 794.224 1927.06 770.664C1881.94 747.104 1846.6 714.52 1821.04 672.914C1795.47 630.806 1782.69 583.435 1782.69 530.8C1782.69 478.165 1795.47 431.045 1821.04 389.438C1846.6 347.33 1881.94 314.496 1927.06 290.936C1972.17 267.376 2023.06 255.596 2079.7 255.596C2136.35 255.596 2187.23 267.376 2232.34 290.936C2277.46 314.496 2312.8 347.33 2338.36 389.438C2363.93 431.045 2376.71 478.165 2376.71 530.8C2376.71 583.435 2363.93 630.806 2338.36 672.914C2312.8 714.52 2277.46 747.104 2232.34 770.664C2187.23 794.224 2136.35 806.004 2079.7 806.004ZM2079.7 662.387C2101.76 662.387 2121.56 657.123 2139.1 646.596C2157.15 635.568 2171.44 620.279 2181.96 600.729C2192.49 580.678 2197.75 557.368 2197.75 530.8C2197.75 504.232 2192.49 481.173 2181.96 461.623C2171.44 441.572 2157.15 426.282 2139.1 415.756C2121.56 404.727 2101.76 399.213 2079.7 399.213C2057.64 399.213 2037.59 404.727 2019.55 415.756C2002 426.282 1987.97 441.572 1977.44 461.623C1966.91 481.173 1961.65 504.232 1961.65 530.8C1961.65 557.368 1966.91 580.678 1977.44 600.729C1987.97 620.279 2002 635.568 2019.55 646.596C2037.59 657.123 2057.64 662.387 2079.7 662.387ZM2689.25 661.635H2641.13V793.974H2463.68V267.626H2717.07C2765.7 267.626 2808.06 275.647 2844.15 291.688C2880.24 307.729 2908.06 330.788 2927.61 360.865C2947.16 390.942 2956.94 426.032 2956.94 466.134C2956.94 503.731 2948.42 536.565 2931.37 564.637C2914.33 592.708 2889.77 615.016 2857.68 631.558L2968.22 793.974H2778.73L2689.25 661.635ZM2777.98 466.134C2777.98 446.584 2771.96 431.546 2759.93 421.019C2747.9 409.991 2729.86 404.477 2705.79 404.477H2641.13V527.792H2705.79C2729.86 527.792 2747.9 522.529 2759.93 512.002C2771.96 500.974 2777.98 485.685 2777.98 466.134Z" fill="white"/>
<path d="M3554.06 794L3446.54 639.855C3442.03 640.357 3435.26 640.607 3426.24 640.607H3307.43V794H3209.68V267.653H3426.24C3471.85 267.653 3511.45 275.172 3545.04 290.21C3579.13 305.249 3605.19 326.804 3623.24 354.876C3641.29 382.948 3650.31 416.283 3650.31 454.882C3650.31 494.483 3640.53 528.571 3620.98 557.144C3601.93 585.717 3574.36 607.021 3538.27 621.057L3659.33 794H3554.06ZM3551.81 454.882C3551.81 421.296 3540.78 395.48 3518.72 377.434C3496.67 359.388 3464.33 350.364 3421.72 350.364H3307.43V560.151H3421.72C3464.33 560.151 3496.67 551.128 3518.72 533.082C3540.78 514.535 3551.81 488.468 3551.81 454.882ZM4090.52 392.472V794H4001.04V742.117C3985.5 761.166 3966.2 775.453 3943.14 784.977C3920.58 794.501 3895.52 799.263 3867.95 799.263C3828.85 799.263 3793.76 790.742 3762.68 773.698C3732.1 756.654 3708.04 732.593 3690.5 701.513C3673.45 670.434 3664.93 634.341 3664.93 593.236C3664.93 552.131 3673.45 516.289 3690.5 485.711C3708.04 454.631 3732.1 430.57 3762.68 413.526C3793.76 396.482 3828.85 387.961 3867.95 387.961C3894.02 387.961 3917.83 392.472 3939.38 401.495C3961.44 410.518 3980.49 423.802 3996.53 441.347V392.472H4090.52ZM3878.48 718.808C3913.07 718.808 3941.64 707.278 3964.2 684.219C3986.75 661.16 3998.03 630.832 3998.03 593.236C3998.03 555.64 3986.75 525.312 3964.2 502.253C3941.64 479.194 3913.07 467.665 3878.48 467.665C3843.89 467.665 3815.32 479.194 3792.76 502.253C3770.7 525.312 3759.67 555.64 3759.67 593.236C3759.67 630.832 3770.7 661.16 3792.76 684.219C3815.32 707.278 3843.89 718.808 3878.48 718.808ZM4388.69 387.961C4439.32 387.961 4479.93 402.749 4510.5 432.324C4541.08 461.9 4556.37 505.762 4556.37 563.911V794H4462.38V575.942C4462.38 540.852 4454.11 514.535 4437.57 496.99C4421.03 478.944 4397.47 469.92 4366.89 469.92C4332.3 469.92 4304.98 480.447 4284.93 501.501C4264.88 522.054 4254.85 551.88 4254.85 590.98V794H4160.86V392.472H4250.34V444.355C4265.88 425.808 4285.43 411.772 4308.99 402.247C4332.55 392.723 4359.12 387.961 4388.69 387.961ZM4786.89 621.809L4716.96 687.979V794H4622.97V236.072H4716.96V572.934L4911.71 392.472H5024.5L4856.82 560.903L5040.29 794H4926L4786.89 621.809ZM5044.69 392.472H5138.68V794H5044.69V392.472ZM5092.07 326.303C5075.02 326.303 5060.74 321.039 5049.21 310.512C5037.68 299.484 5031.91 285.95 5031.91 269.909C5031.91 253.867 5037.68 240.583 5049.21 230.056C5060.74 219.028 5075.02 213.514 5092.07 213.514C5109.11 213.514 5123.4 218.778 5134.93 229.305C5146.45 239.33 5152.22 252.113 5152.22 267.653C5152.22 284.195 5146.45 298.231 5134.93 309.761C5123.9 320.789 5109.61 326.303 5092.07 326.303ZM5437.25 387.961C5487.88 387.961 5528.48 402.749 5559.06 432.324C5589.64 461.9 5604.93 505.762 5604.93 563.911V794H5510.93V575.942C5510.93 540.852 5502.66 514.535 5486.12 496.99C5469.58 478.944 5446.02 469.92 5415.44 469.92C5380.85 469.92 5353.53 480.447 5333.48 501.501C5313.43 522.054 5303.4 551.88 5303.4 590.98V794H5209.41V392.472H5298.89V444.355C5314.43 425.808 5333.98 411.772 5357.54 402.247C5381.1 392.723 5407.67 387.961 5437.25 387.961ZM6073.72 392.472V733.094C6073.72 874.456 6001.53 945.137 5857.16 945.137C5818.56 945.137 5781.97 940.124 5747.38 930.098C5712.79 920.574 5684.22 906.538 5661.66 887.991L5703.77 817.31C5721.31 831.847 5743.37 843.376 5769.94 851.898C5797.01 860.921 5824.33 865.433 5851.9 865.433C5896.01 865.433 5928.34 855.407 5948.9 835.356C5969.45 815.305 5979.72 784.726 5979.72 743.621V722.567C5963.68 740.112 5944.13 753.396 5921.07 762.419C5898.02 771.442 5872.7 775.954 5845.13 775.954C5807.03 775.954 5772.44 767.933 5741.36 751.892C5710.79 735.35 5686.47 712.291 5668.43 682.715C5650.88 653.139 5642.11 619.303 5642.11 581.205C5642.11 543.108 5650.88 509.522 5668.43 480.447C5686.47 450.872 5710.79 428.063 5741.36 412.022C5772.44 395.981 5807.03 387.961 5845.13 387.961C5874.2 387.961 5900.52 392.723 5924.08 402.247C5948.14 411.772 5968.19 426.309 5984.24 445.859V392.472H6073.72ZM5859.42 696.25C5895.01 696.25 5924.08 685.723 5946.64 664.669C5969.7 643.114 5981.23 615.293 5981.23 581.205C5981.23 547.619 5969.7 520.299 5946.64 499.246C5924.08 478.192 5895.01 467.665 5859.42 467.665C5823.32 467.665 5793.75 478.192 5770.69 499.246C5748.13 520.299 5736.85 547.619 5736.85 581.205C5736.85 615.293 5748.13 643.114 5770.69 664.669C5793.75 685.723 5823.32 696.25 5859.42 696.25Z" fill="white"/>
<defs>
<linearGradient id="paint0_linear_21358_4789" x1="499.704" y1="406.586" x2="865.354" y2="621.1" gradientUnits="userSpaceOnUse">
<stop stop-color="#8B98F2"/>
<stop offset="1" stop-color="#FF5A5E"/>
</linearGradient>
</defs>
</svg>
